<svg xmlns="http://www.w3.org/2000/svg" width="29.354" height="29.354" viewBox="0 0 29.354 29.354">
  <path id="Icon_awesome-info-circle" data-name="Icon awesome-info-circle" d="M15.239.563A14.677,14.677,0,1,0,29.916,15.239,14.679,14.679,0,0,0,15.239.563Zm0,6.51a2.486,2.486,0,1,1-2.486,2.486A2.486,2.486,0,0,1,15.239,7.072ZM18.553,22.1a.71.71,0,0,1-.71.71H12.635a.71.71,0,0,1-.71-.71v-1.42a.71.71,0,0,1,.71-.71h.71V16.186h-.71a.71.71,0,0,1-.71-.71v-1.42a.71.71,0,0,1,.71-.71h3.788a.71.71,0,0,1,.71.71v5.918h.71a.71.71,0,0,1,.71.71Z" transform="translate(-0.563 -0.563)" fill="#fff"/>
</svg>
