<svg xmlns="http://www.w3.org/2000/svg" width="28.532" height="28.526" viewBox="0 0 28.532 28.526">
  <path id="Icon_awesome-instagram" data-name="Icon awesome-instagram" d="M14.264,9.187A7.314,7.314,0,1,0,21.577,16.5,7.3,7.3,0,0,0,14.264,9.187Zm0,12.068A4.755,4.755,0,1,1,19.019,16.5a4.763,4.763,0,0,1-4.755,4.755ZM23.583,8.888a1.706,1.706,0,1,1-1.706-1.706A1.7,1.7,0,0,1,23.583,8.888Zm4.844,1.731a8.442,8.442,0,0,0-2.3-5.977,8.5,8.5,0,0,0-5.977-2.3c-2.355-.134-9.414-.134-11.769,0A8.485,8.485,0,0,0,2.4,4.636a8.47,8.47,0,0,0-2.3,5.977c-.134,2.355-.134,9.414,0,11.769a8.442,8.442,0,0,0,2.3,5.977,8.508,8.508,0,0,0,5.977,2.3c2.355.134,9.414.134,11.769,0a8.442,8.442,0,0,0,5.977-2.3,8.5,8.5,0,0,0,2.3-5.977c.134-2.355.134-9.408,0-11.763Zm-3.043,14.29a4.814,4.814,0,0,1-2.712,2.712c-1.878.745-6.333.573-8.408.573s-6.537.165-8.408-.573a4.814,4.814,0,0,1-2.712-2.712c-.745-1.878-.573-6.333-.573-8.408s-.165-6.537.573-8.408A4.814,4.814,0,0,1,5.855,5.381c1.878-.745,6.333-.573,8.408-.573s6.537-.165,8.408.573a4.814,4.814,0,0,1,2.712,2.712c.745,1.878.573,6.333.573,8.408S26.129,23.038,25.384,24.909Z" transform="translate(0.005 -2.237)" fill="#2b3139"/>
</svg>
