<svg id="Grupo_109" data-name="Grupo 109" xmlns="http://www.w3.org/2000/svg" width="375.64" height="66.452" viewBox="0 0 375.64 66.452">
  <g id="Grupo_106" data-name="Grupo 106" transform="translate(0 35.572)">
    <path id="Trazado_1" data-name="Trazado 1" d="M248.381,107.8l6.125,9.394h-4.665l-5.776-9.172,5.617-7.616h4.285Zm-4.475,9.394h-4.062V93.677l4.062-.444Z" transform="translate(-148.335 -93.233)" fill="#111"/>
    <path id="Trazado_2" data-name="Trazado 2" d="M700.663,120.487h-5.457L691.872,103l-3.427,17.486h-5.3l-3.967-21.929h4.158l2.792,18.6,3.586-18.6h4.443l3.523,18.6,3.046-18.6h3.967Z" transform="translate(-420.047 -96.527)" fill="#111"/>
    <path id="Trazado_3" data-name="Trazado 3" d="M290.6,123.51v-3.395h-1.683c-2.633,0-3.934.952-3.934,2.919a2.221,2.221,0,0,0,2.38,2.54,3.622,3.622,0,0,0,3.237-2.064m5.268,2.254-.857,2.7c-1.873-.16-3.079-.794-3.713-2.444a5.771,5.771,0,0,1-5.046,2.507c-3.332,0-5.395-2.127-5.395-5.174,0-3.649,2.729-5.617,7.616-5.617H290.6v-.952c0-2.189-.984-2.919-3.142-2.919a15.356,15.356,0,0,0-4.475.888l-.92-2.762a17.3,17.3,0,0,1,6.063-1.206c4.505,0,6.473,2.063,6.473,5.776v7.045c0,1.366.444,1.841,1.269,2.159" transform="translate(-173.701 -104.088)" fill="#111"/>
    <path id="Trazado_4" data-name="Trazado 4" d="M352.855,115.895v12.154h-4.062v-11.52c0-2.094-.825-2.7-1.841-2.7-1.4,0-2.254.984-3.174,2.538v11.678h-4.062v-11.52c0-2.094-.856-2.7-1.84-2.7-1.428,0-2.285.984-3.206,2.538v11.678h-4.061V111.261h3.523l.317,2.189a5.693,5.693,0,0,1,4.855-2.665,4.09,4.09,0,0,1,4.062,2.825,5.981,5.981,0,0,1,5.046-2.825c2.666,0,4.443,1.936,4.443,5.11" transform="translate(-204.47 -104.088)" fill="#111"/>
    <path id="Trazado_5" data-name="Trazado 5" d="M424.15,115.895v12.154h-4.063v-11.52c0-2.094-.825-2.7-1.84-2.7-1.4,0-2.254.984-3.174,2.538v11.678h-4.062v-11.52c0-2.094-.857-2.7-1.84-2.7-1.428,0-2.284.984-3.206,2.538v11.678H401.9V111.261h3.523l.317,2.189a5.692,5.692,0,0,1,4.854-2.665,4.09,4.09,0,0,1,4.063,2.825,5.98,5.98,0,0,1,5.046-2.825c2.667,0,4.443,1.936,4.443,5.11" transform="translate(-248.563 -104.088)" fill="#111"/>
    <path id="Trazado_6" data-name="Trazado 6" d="M481.357,118.083c0-2.76-.982-4.41-3.268-4.41-1.9,0-3.111,1.269-3.333,4.6h6.6Zm3.936,2.825H474.757c.319,3.428,1.9,4.538,4.126,4.538a6.976,6.976,0,0,0,4.189-1.491l1.681,2.316a9.653,9.653,0,0,1-6.22,2.254c-5.2,0-8-3.46-8-8.759,0-5.11,2.7-8.981,7.457-8.981,4.7,0,7.394,3.174,7.394,8.474,0,.539-.064,1.206-.1,1.65" transform="translate(-291.01 -104.088)" fill="#111"/>
    <path id="Trazado_7" data-name="Trazado 7" d="M529.833,111.09l-.7,3.936a5.483,5.483,0,0,0-1.492-.19c-2.031,0-3.079,1.491-3.713,4.316V128.1h-4.061V111.312h3.522l.381,3.3c.793-2.412,2.413-3.745,4.38-3.745a5.832,5.832,0,0,1,1.683.222" transform="translate(-321.52 -104.14)" fill="#111"/>
    <path id="Trazado_8" data-name="Trazado 8" d="M591.958,120.488h-5.426l-7.522-17.741a69.5,69.5,0,0,1,.571,8.791v8.95h-3.807V98.559h5.3l7.648,17.771a54.244,54.244,0,0,1-.571-7.49V98.559h3.808Z" transform="translate(-356.095 -96.527)" fill="#111"/>
    <path id="Trazado_9" data-name="Trazado 9" d="M636.864,108.682h2.6c2.6,0,4.063-1.047,4.063-3.68,0-2.381-1.365-3.4-4.411-3.4h-2.254Zm2.667,3.015h-2.667v8.791h-4.188V98.559h6.537c5.744,0,8.7,2.094,8.7,6.442,0,2.982-1.459,4.76-4.443,5.934l5.743,9.553h-4.823Z" transform="translate(-391.287 -96.527)" fill="#111"/>
    <path id="Trazado_10" data-name="Trazado 10" d="M10.98,105.54c0-2.762-1.681-3.9-4.538-3.9H4.189V109.7H6.442c2.793,0,4.538-.952,4.538-4.158m4.38,0c0,5.046-3.65,7.3-8.6,7.3H4.189v7.648H0V98.559H6.474c5.522,0,8.886,2.253,8.886,6.981" transform="translate(0 -96.527)" fill="#111"/>
    <path id="Trazado_11" data-name="Trazado 11" d="M62.52,117.1a7.55,7.55,0,0,1-2.887.571c-2.508,0-3.936-1.491-3.936-4.284V96.724a9.5,9.5,0,0,0-3.015-.445c-1.9,0-2.475.7-2.475,2.316v1.81h3.585l-.444,2.919H50.207v13.869H46.145V103.325H43.51v-2.919h2.635V98.565c0-3.046,1.967-5.332,6.061-5.332a12.719,12.719,0,0,1,3.777.6l3.776-.412V113.1c0,.92.287,1.3.953,1.3a3.191,3.191,0,0,0,.952-.158Z" transform="translate(-26.909 -93.233)" fill="#111"/>
    <path id="Trazado_12" data-name="Trazado 12" d="M109.4,118.083c0-2.76-.984-4.41-3.268-4.41-1.9,0-3.111,1.269-3.333,4.6h6.6Zm3.936,2.825H102.8c.317,3.428,1.9,4.538,4.126,4.538a6.981,6.981,0,0,0,4.189-1.491l1.681,2.316a9.655,9.655,0,0,1-6.22,2.254c-5.2,0-8-3.46-8-8.759,0-5.11,2.7-8.981,7.458-8.981,4.7,0,7.394,3.174,7.394,8.474,0,.539-.064,1.206-.1,1.65" transform="translate(-60.97 -104.088)" fill="#111"/>
    <path id="Trazado_13" data-name="Trazado 13" d="M147.781,113.717c0,2.031,1.112,3.3,2.984,3.3,1.937,0,2.984-1.207,2.984-3.332s-1.015-3.174-3.047-3.174c-1.84,0-2.92,1.269-2.92,3.206m11.711-4.6a15.077,15.077,0,0,1-4.855.571c2.031.92,3.047,2.222,3.047,4.316,0,3.269-2.54,5.649-6.76,5.649a6.77,6.77,0,0,1-2-.254,1.525,1.525,0,0,0-.7,1.238c0,.6.349,1.174,2.031,1.174h2.57c3.713,0,6.126,2,6.126,4.76,0,3.364-2.888,5.364-8.378,5.364-5.966,0-7.648-1.905-7.648-5.269h3.649c0,1.683.731,2.412,4.063,2.412,3.269,0,4.221-.888,4.221-2.221,0-1.238-.984-2-2.856-2h-2.539c-3.364,0-4.792-1.491-4.792-3.237a3.787,3.787,0,0,1,1.968-3.11,4.9,4.9,0,0,1-2.952-4.729c0-3.65,2.887-6.029,6.95-6.029a13.621,13.621,0,0,0,7.839-1.872Z" transform="translate(-88.395 -101.054)" fill="#111"/>
    <path id="Trazado_14" data-name="Trazado 14" d="M201.333,118.083c0-2.76-.984-4.41-3.268-4.41-1.9,0-3.11,1.269-3.333,4.6h6.6Zm3.935,2.825H194.732c.318,3.428,1.9,4.538,4.126,4.538a6.98,6.98,0,0,0,4.189-1.491l1.682,2.316a9.656,9.656,0,0,1-6.22,2.254c-5.2,0-8-3.46-8-8.759,0-5.11,2.7-8.981,7.459-8.981,4.7,0,7.394,3.174,7.394,8.474,0,.539-.063,1.206-.1,1.65" transform="translate(-117.824 -104.088)" fill="#111"/>
  </g>
  <g id="Grupo_107" data-name="Grupo 107" transform="translate(142.323 12.999)">
    <path id="Trazado_15" data-name="Trazado 15" d="M397.335,43.725l-.316,1.78a2.5,2.5,0,0,0-.674-.086c-.919,0-1.393.675-1.679,1.953V51.42h-1.838V43.826h1.593l.173,1.492a2.138,2.138,0,0,1,1.982-1.694,2.648,2.648,0,0,1,.76.1" transform="translate(-385.273 -39.978)" fill="#111"/>
    <path id="Trazado_16" data-name="Trazado 16" d="M412.543,43.725l-.316,1.78a2.5,2.5,0,0,0-.674-.086c-.919,0-1.393.675-1.679,1.953V51.42h-1.838V43.826h1.593l.172,1.492a2.139,2.139,0,0,1,1.982-1.694,2.647,2.647,0,0,1,.76.1" transform="translate(-394.678 -39.978)" fill="#111"/>
    <path id="Trazado_17" data-name="Trazado 17" d="M424.683,45.511h-1.838V37.916h1.838Zm.23-10.322a1.156,1.156,0,1,1-1.163-1.119,1.1,1.1,0,0,1,1.163,1.119" transform="translate(-403.687 -34.069)" fill="#111"/>
    <path id="Trazado_18" data-name="Trazado 18" d="M438.971,44.477l-.818,1.1a2.431,2.431,0,0,0-1.537-.545c-1.062,0-1.708.775-1.708,2.6s.675,2.484,1.708,2.484a2.64,2.64,0,0,0,1.537-.546l.818,1.163a3.74,3.74,0,0,1-2.454.876c-2.2,0-3.561-1.522-3.561-3.948s1.363-4.077,3.546-4.077a3.539,3.539,0,0,1,2.469.891" transform="translate(-410.091 -39.956)" fill="#111"/>
    <path id="Trazado_19" data-name="Trazado 19" d="M458.805,41.037v5.5h-1.838V41.324c0-.947-.373-1.219-.932-1.219a1.992,1.992,0,0,0-1.594,1.134v5.3H452.6V35.912l1.837-.186v4.12a2.742,2.742,0,0,1,2.212-1.121,2.059,2.059,0,0,1,2.153,2.312" transform="translate(-422.243 -35.094)" fill="#111"/>
    <path id="Trazado_20" data-name="Trazado 20" d="M477.486,48.316a3.32,3.32,0,0,1-1.91.575c-1.492-.015-2.282-.862-2.282-2.484v-4H472.1V41.081h1.192V39.4l1.838-.216v1.895H476.9l-.187,1.321h-1.578v3.961c0,.747.244,1.048.8,1.048a1.807,1.807,0,0,0,.9-.273Z" transform="translate(-434.302 -37.234)" fill="#111"/>
    <path id="Trazado_21" data-name="Trazado 21" d="M495.208,51.746h-1.593l-.1-1.063a2.555,2.555,0,0,1-2.326,1.278c-1.378,0-2.111-.891-2.111-2.354V44.152h1.838v5.226c0,.889.287,1.191.919,1.191a1.841,1.841,0,0,0,1.536-1.076V44.152h1.838Z" transform="translate(-444.8 -40.305)" fill="#111"/>
    <path id="Trazado_22" data-name="Trazado 22" d="M517.452,45.9v5.5h-1.838V46.185c0-.947-.359-1.219-.932-1.219-.661,0-1.149.444-1.594,1.148V51.4H511.25V43.8h1.593l.144.992a2.829,2.829,0,0,1,2.312-1.207,2.046,2.046,0,0,1,2.153,2.312" transform="translate(-458.513 -39.956)" fill="#111"/>
    <path id="Trazado_23" data-name="Trazado 23" d="M533.323,44.915a1.317,1.317,0,0,0,1.348,1.493c.876,0,1.35-.546,1.35-1.508s-.459-1.436-1.378-1.436a1.289,1.289,0,0,0-1.32,1.451m5.3-2.082a6.826,6.826,0,0,1-2.2.258,2,2,0,0,1,1.378,1.953c0,1.478-1.149,2.555-3.058,2.555a3.069,3.069,0,0,1-.905-.114.69.69,0,0,0-.315.56c0,.273.157.531.919.531H535.6c1.68,0,2.771.9,2.771,2.153,0,1.522-1.306,2.426-3.79,2.426-2.7,0-3.46-.861-3.46-2.383h1.651c0,.76.33,1.091,1.838,1.091,1.479,0,1.908-.4,1.908-1,0-.56-.444-.9-1.291-.9h-1.149c-1.521,0-2.167-.676-2.167-1.464a1.714,1.714,0,0,1,.89-1.407,2.215,2.215,0,0,1-1.335-2.139c0-1.652,1.307-2.729,3.145-2.729a6.165,6.165,0,0,0,3.546-.846Z" transform="translate(-470.806 -38.584)" fill="#111"/>
    <path id="Trazado_24" data-name="Trazado 24" d="M557.664,44.493l-.717,1.076a3.47,3.47,0,0,0-1.909-.617c-.733,0-1.148.3-1.148.761,0,.5.3.732,1.593,1.091,1.55.416,2.426,1.048,2.426,2.4,0,1.58-1.465,2.412-3.2,2.412a4.445,4.445,0,0,1-3.029-1.076L552.6,49.5a3.432,3.432,0,0,0,2.068.747c.818,0,1.348-.345,1.348-.919,0-.631-.3-.833-1.722-1.234-1.565-.43-2.254-1.177-2.254-2.3,0-1.263,1.163-2.211,2.93-2.211a4.268,4.268,0,0,1,2.7.9" transform="translate(-483.516 -39.957)" fill="#111"/>
    <path id="Trazado_25" data-name="Trazado 25" d="M575.02,49.344V47.809h-.762c-1.192,0-1.78.431-1.78,1.32a1,1,0,0,0,1.076,1.149,1.641,1.641,0,0,0,1.466-.934m2.383,1.02-.388,1.221a1.711,1.711,0,0,1-1.681-1.106,2.606,2.606,0,0,1-2.282,1.134,2.251,2.251,0,0,1-2.441-2.34c0-1.651,1.235-2.541,3.446-2.541h.962V46.3c0-.989-.445-1.32-1.421-1.32a6.944,6.944,0,0,0-2.025.4l-.416-1.249a7.816,7.816,0,0,1,2.742-.546c2.037,0,2.928.934,2.928,2.613v3.186c0,.618.2.833.575.977" transform="translate(-495.227 -39.956)" fill="#111"/>
    <path id="Trazado_26" data-name="Trazado 26" d="M599.025,51.746h-1.593l-.1-1.063a2.555,2.555,0,0,1-2.325,1.278c-1.378,0-2.111-.891-2.111-2.354V44.152h1.838v5.226c0,.889.288,1.191.919,1.191a1.841,1.841,0,0,0,1.536-1.076V44.152h1.838Z" transform="translate(-509.007 -40.305)" fill="#111"/>
    <path id="Trazado_27" data-name="Trazado 27" d="M618.8,44.493l-.718,1.076a3.469,3.469,0,0,0-1.909-.617c-.733,0-1.149.3-1.149.761,0,.5.3.732,1.595,1.091,1.55.416,2.425,1.048,2.425,2.4,0,1.58-1.464,2.412-3.2,2.412a4.445,4.445,0,0,1-3.029-1.076l.919-1.035a3.431,3.431,0,0,0,2.067.747c.819,0,1.35-.345,1.35-.919,0-.631-.3-.833-1.722-1.234-1.565-.43-2.254-1.177-2.254-2.3,0-1.263,1.162-2.211,2.928-2.211a4.273,4.273,0,0,1,2.7.9" transform="translate(-521.324 -39.957)" fill="#111"/>
    <path id="Trazado_28" data-name="Trazado 28" d="M636.788,44.493l-.717,1.076a3.471,3.471,0,0,0-1.909-.617c-.733,0-1.148.3-1.148.761,0,.5.3.732,1.593,1.091,1.55.416,2.426,1.048,2.426,2.4,0,1.58-1.465,2.412-3.2,2.412a4.445,4.445,0,0,1-3.029-1.076l.919-1.035a3.435,3.435,0,0,0,2.068.747c.818,0,1.349-.345,1.349-.919,0-.631-.3-.833-1.722-1.234-1.565-.43-2.254-1.177-2.254-2.3,0-1.263,1.163-2.211,2.929-2.211a4.268,4.268,0,0,1,2.7.9" transform="translate(-532.452 -39.957)" fill="#111"/>
    <path id="Trazado_29" data-name="Trazado 29" d="M656.166,44.477l-.818,1.1a2.43,2.43,0,0,0-1.536-.545c-1.063,0-1.709.775-1.709,2.6s.674,2.484,1.709,2.484a2.638,2.638,0,0,0,1.536-.546l.818,1.163a3.74,3.74,0,0,1-2.454.876c-2.2,0-3.56-1.522-3.56-3.948s1.364-4.077,3.546-4.077a3.538,3.538,0,0,1,2.469.891" transform="translate(-544.418 -39.956)" fill="#111"/>
    <path id="Trazado_30" data-name="Trazado 30" d="M676,41.037v5.5h-1.838V41.324c0-.947-.373-1.219-.932-1.219a1.993,1.993,0,0,0-1.594,1.134v5.3H669.8V35.912l1.837-.186v4.12a2.742,2.742,0,0,1,2.212-1.121A2.06,2.06,0,0,1,676,41.037" transform="translate(-556.57 -35.094)" fill="#111"/>
    <path id="Trazado_31" data-name="Trazado 31" d="M697.836,51.746h-1.595l-.1-1.063a2.557,2.557,0,0,1-2.325,1.278c-1.378,0-2.111-.891-2.111-2.354V44.152h1.838v5.226c0,.889.286,1.191.919,1.191A1.842,1.842,0,0,0,696,49.493V44.152h1.838Z" transform="translate(-570.119 -40.305)" fill="#111"/>
    <path id="Trazado_32" data-name="Trazado 32" d="M717.607,44.493l-.718,1.076a3.466,3.466,0,0,0-1.908-.617c-.733,0-1.149.3-1.149.761,0,.5.3.732,1.594,1.091,1.551.416,2.425,1.048,2.425,2.4,0,1.58-1.464,2.412-3.2,2.412a4.443,4.443,0,0,1-3.029-1.076l.919-1.035a3.431,3.431,0,0,0,2.067.747c.819,0,1.349-.345,1.349-.919,0-.631-.3-.833-1.723-1.234-1.565-.43-2.254-1.177-2.254-2.3,0-1.263,1.163-2.211,2.928-2.211a4.271,4.271,0,0,1,2.7.9" transform="translate(-582.435 -39.957)" fill="#111"/>
    <path id="Trazado_33" data-name="Trazado 33" d="M735.6,44.493l-.719,1.076a3.468,3.468,0,0,0-1.908-.617c-.733,0-1.149.3-1.149.761,0,.5.3.732,1.594,1.091,1.55.416,2.425,1.048,2.425,2.4,0,1.58-1.464,2.412-3.2,2.412a4.447,4.447,0,0,1-3.029-1.076l.919-1.035a3.428,3.428,0,0,0,2.067.747c.819,0,1.349-.345,1.349-.919,0-.631-.3-.833-1.722-1.234-1.565-.43-2.254-1.177-2.254-2.3,0-1.263,1.163-2.211,2.928-2.211a4.273,4.273,0,0,1,2.7.9" transform="translate(-593.563 -39.957)" fill="#111"/>
    <path id="Trazado_34" data-name="Trazado 34" d="M378.583,39.463h-3.661v2.771h3.188V43.64h-3.188v2.914h3.92v1.422h-5.814V38.056h5.756Z" transform="translate(-373.028 -36.535)" fill="#111"/>
  </g>
  <g id="Grupo_108" data-name="Grupo 108" transform="translate(309.055)">
    <path id="Trazado_35" data-name="Trazado 35" d="M935.1,0,916.354,18.658l7.271,7.226L942.371,7.227Z" transform="translate(-875.787)" fill="#004394"/>
    <path id="Trazado_36" data-name="Trazado 36" d="M810.028,124.985l7.268,7.226,18.749-18.655-7.267-7.227Z" transform="translate(-810.028 -65.76)" fill="#42259a"/>
    <path id="Trazado_37" data-name="Trazado 37" d="M810.028,7.232l18.746,18.653,7.272-7.224L817.3.007Z" transform="translate(-810.028 -0.004)" fill="#9ee3e4"/>
    <path id="Trazado_38" data-name="Trazado 38" d="M916.355,113.555,935.1,132.211l7.269-7.227-18.748-18.656Z" transform="translate(-875.788 -65.76)" fill="#ec5b00"/>
  </g>
</svg>
