<svg xmlns="http://www.w3.org/2000/svg" width="30.857" height="24" viewBox="0 0 30.857 24">
  <path id="Icon_awesome-twitter" data-name="Icon awesome-twitter" d="M27.685,9.362c.02.262.02.525.02.788A17.478,17.478,0,0,1,9.711,27.381,18.45,18.45,0,0,1,0,24.662a13.656,13.656,0,0,0,1.527.075A13.026,13.026,0,0,0,9.379,22.15a6.308,6.308,0,0,1-5.913-4.2,8.32,8.32,0,0,0,1.194.094,6.968,6.968,0,0,0,1.664-.206,6.129,6.129,0,0,1-5.071-5.944v-.075a6.583,6.583,0,0,0,2.859.769A5.99,5.99,0,0,1,1.292,7.543a5.818,5.818,0,0,1,.861-3.056,18.25,18.25,0,0,0,13.04,6.338,6.559,6.559,0,0,1-.157-1.387,6.192,6.192,0,0,1,6.324-6.056,6.442,6.442,0,0,1,4.621,1.912A12.791,12.791,0,0,0,30,3.831a6.1,6.1,0,0,1-2.78,3.337,13.122,13.122,0,0,0,3.642-.937,13.3,13.3,0,0,1-3.172,3.131Z" transform="translate(0 -3.381)" fill="#004394"/>
</svg>
